<svg width="512" height="512" viewBox="0 0 512 512" fill="none" xmlns="http://www.w3.org/2000/svg">
<path d="M74.2577 492.908C105.245 492.908 128.727 485.969 144.705 472.089C160.844 458.371 168.913 437.955 168.913 410.841V135.59H98.2241V408.905C98.2241 419.879 95.5612 427.626 90.2353 432.145C85.0708 436.825 76.4364 439.165 64.3322 439.165C62.7183 439.165 61.1851 439.085 59.7325 438.923C58.1186 438.923 56.6661 438.923 55.375 438.923V492.182C57.4731 492.343 60.3781 492.505 64.0901 492.666C67.8021 492.828 71.1912 492.908 74.2577 492.908ZM133.569 94.6778C144.543 94.6778 153.904 90.8851 161.651 83.2998C169.397 75.553 173.271 66.2731 173.271 55.4599C173.271 44.4854 169.397 35.2054 161.651 27.6201C153.904 19.8734 144.543 16 133.569 16C122.755 16 113.395 19.8734 105.487 27.6201C97.5786 35.2054 93.6245 44.4854 93.6245 55.4599C93.6245 66.2731 97.5786 75.553 105.487 83.2998C113.395 90.8851 122.755 94.6778 133.569 94.6778Z" fill="#7E879A"/>
<path d="M332.466 407.694C351.994 407.694 368.86 405.273 383.062 400.432C397.426 395.429 409.368 388.973 418.891 381.065C428.574 373.157 436.159 364.684 441.647 355.646C447.134 346.447 450.926 337.651 453.025 329.259L453.509 326.838H387.661L386.935 328.29C385.321 331.679 382.255 335.472 377.736 339.668C373.378 343.703 367.568 347.254 360.306 350.32C353.043 353.386 344.248 354.92 333.919 354.92C321.169 354.92 310.194 352.095 300.995 346.447C291.796 340.798 284.694 332.648 279.691 321.996C274.688 311.344 272.187 298.514 272.187 283.504V254.938C272.187 239.445 274.688 226.372 279.691 215.72C284.856 204.907 291.796 196.757 300.511 191.27C309.387 185.621 319.474 182.797 330.771 182.797C342.23 182.797 352.236 185.541 360.79 191.028C369.505 196.354 376.283 204.342 381.125 214.994C384.639 222.476 386.919 231.272 387.965 241.382C371.112 241.382 294.426 241.382 294.426 241.382C294.426 241.382 292.998 247.192 292.998 260.472C292.998 270.32 293.554 285.683 293.554 285.683H455.688V263.653C455.688 236.701 450.604 213.219 440.436 193.207C430.269 173.194 415.743 157.62 396.861 146.484C377.978 135.348 355.545 129.78 329.561 129.78C303.739 129.78 281.225 135.51 262.019 146.968C242.975 158.427 228.208 174.566 217.718 195.385C207.389 216.205 202.224 240.736 202.224 268.979V269.221C202.224 297.787 207.469 322.399 217.96 343.057C228.45 363.715 243.379 379.693 262.745 390.99C282.274 402.126 305.514 407.694 332.466 407.694Z" fill="#7E879A"/>
</svg>
