<svg width="16" height="16" viewBox="0 0 16 16" fill="none" xmlns="http://www.w3.org/2000/svg">
<rect width="16" height="16" fill="white"/>
<path d="M1.6335 16C2.6731 16 3.46091 15.7672 3.99695 15.3015C4.53841 14.8413 4.80914 14.1563 4.80914 13.2467V4.01218H2.43756V13.1817C2.43756 13.5499 2.34822 13.8098 2.16954 13.9614C1.99628 14.1184 1.7066 14.197 1.30051 14.197C1.24636 14.197 1.19492 14.1942 1.14619 14.1888C1.09205 14.1888 1.04332 14.1888 1 14.1888V15.9756C1.07039 15.981 1.16785 15.9865 1.29239 15.9919C1.41692 15.9973 1.53063 16 1.6335 16ZM3.62335 2.63959C3.99154 2.63959 4.30558 2.51235 4.56548 2.25787C4.82538 1.99797 4.95533 1.68663 4.95533 1.32386C4.95533 0.955668 4.82538 0.644332 4.56548 0.389848C4.30558 0.129949 3.99154 0 3.62335 0C3.26058 0 2.94653 0.129949 2.68122 0.389848C2.41591 0.644332 2.28325 0.955668 2.28325 1.32386C2.28325 1.68663 2.41591 1.99797 2.68122 2.25787C2.94653 2.51235 3.26058 2.63959 3.62335 2.63959Z" fill="black"/>
<path d="M10.2962 13.1411C10.9514 13.1411 11.5172 13.0599 11.9937 12.8975C12.4756 12.7296 12.8763 12.513 13.1957 12.2477C13.5206 11.9824 13.7751 11.6981 13.9592 11.3949C14.1433 11.0863 14.2705 10.7912 14.3409 10.5096L14.3572 10.4284H12.148L12.1237 10.4772C12.0695 10.5909 11.9666 10.7181 11.815 10.8589C11.6688 10.9942 11.4739 11.1134 11.2303 11.2162C10.9866 11.3191 10.6915 11.3706 10.345 11.3706C9.91723 11.3706 9.54904 11.2758 9.24041 11.0863C8.93178 10.8968 8.69354 10.6234 8.52569 10.266C8.35783 9.90863 8.27391 9.47817 8.27391 8.97462V8.01624C8.27391 7.49645 8.35783 7.05787 8.52569 6.70051C8.69895 6.33773 8.93178 6.0643 9.22416 5.8802C9.52196 5.69069 9.86037 5.59594 10.2394 5.59594C10.6238 5.59594 10.9595 5.68799 11.2465 5.87208C11.5389 6.05076 11.7663 6.31878 11.9287 6.67614C12.0466 6.92716 12.1231 7.22225 12.1582 7.56142C11.5928 7.56142 9.02003 7.56142 9.02003 7.56142C9.02003 7.56142 8.97211 7.75635 8.97211 8.20189C8.97211 8.53228 8.99076 9.04772 8.99076 9.04772H14.4303V8.30863C14.4303 7.4044 14.2597 6.61658 13.9186 5.94518C13.5775 5.27377 13.0902 4.75127 12.4567 4.37767C11.8231 4.00406 11.0705 3.81726 10.1988 3.81726C9.33245 3.81726 8.57712 4.00948 7.93279 4.39391C7.29388 4.77834 6.79844 5.3198 6.4465 6.01827C6.09997 6.71675 5.9267 7.53976 5.9267 8.48731V8.49543C5.9267 9.45381 6.10267 10.2795 6.45462 10.9726C6.80657 11.6657 7.30741 12.2017 7.95716 12.5807C8.61232 12.9543 9.39201 13.1411 10.2962 13.1411Z" fill="black"/>
</svg>
